<?xml version="1.0" encoding="UTF-8"?>
<svg version="1.1" xmlns="http://www.w3.org/2000/svg" width="512" height="512">
<path d="M0 0 C1.15286178 -0.0060911 2.30572357 -0.01218221 3.49352056 -0.01845789 C6.68966687 -0.03222592 9.88548699 -0.03253934 13.08164799 -0.02708292 C16.53034881 -0.02441275 19.97898386 -0.03894451 23.42765808 -0.05117798 C30.18349231 -0.07223692 36.93924073 -0.07677249 43.69510391 -0.07499009 C49.18833093 -0.07368234 54.6815312 -0.07748728 60.17475319 -0.08491516 C61.75727202 -0.08701438 63.33979086 -0.08911198 64.9223097 -0.09120798 C66.10384599 -0.09277327 66.10384599 -0.09277327 67.3092517 -0.09437019 C82.20915899 -0.11327548 97.10901706 -0.11222189 112.00893138 -0.10540086 C125.63013978 -0.09982898 139.2511599 -0.12063509 152.87232431 -0.15376133 C166.86436064 -0.18752476 180.85630686 -0.20266311 194.84838468 -0.1980443 C202.70143398 -0.19580179 210.55430939 -0.20101018 218.40732384 -0.22593689 C225.09525102 -0.24698471 231.78290903 -0.25050803 238.47084739 -0.2316373 C241.88082494 -0.22249945 245.29030114 -0.22127514 248.70023918 -0.24199295 C252.4038058 -0.26018086 256.10604356 -0.24743671 259.80957031 -0.22705078 C260.87816967 -0.23956863 261.94676902 -0.25208648 263.04775017 -0.26498365 C271.29889638 -0.16783139 278.01027651 1.97392608 284.15974426 7.64050293 C284.93318176 8.72524902 284.93318176 8.72524902 285.72224426 9.83190918 C286.52661926 10.91278809 286.52661926 10.91278809 287.34724426 12.01550293 C290.98273344 18.30531232 291.00275049 24.16549176 290.99568176 31.23425293 C291.01596712 33.37032591 291.03681783 35.50639359 291.05818176 37.64245605 C291.08078252 40.99105327 291.09725741 44.33944034 291.10310364 47.68811035 C291.11264404 50.9330386 291.14643388 54.17703446 291.18318176 57.42175293 C291.17561356 58.91423805 291.17561356 58.91423805 291.16789246 60.43687439 C291.25457037 66.58715634 291.8220365 70.52410098 295.72224426 75.39440918 C301.46020574 78.97395854 307.00069047 78.80676039 313.62458801 78.76550293 C315.75284485 78.78288266 317.88110002 78.80046707 320.00935364 78.8182373 C323.33807936 78.82830575 326.6666973 78.83190562 329.99543762 78.8302002 C333.22630897 78.83378236 336.45636293 78.86116534 339.68708801 78.89050293 C340.67377975 78.8823204 341.6604715 78.87413788 342.67706299 78.8657074 C351.09399676 78.95577859 357.62006124 81.45715002 363.72224426 87.39440918 C368.11191683 93.52502837 369.87370534 98.16402069 369.84249878 105.74052429 C369.84378042 106.87142966 369.84378042 106.87142966 369.84508795 108.02518159 C369.8467388 110.5586818 369.8412278 113.09211621 369.83576965 115.62561035 C369.83548767 117.43883767 369.83564573 119.25206511 369.83621216 121.06529236 C369.8364997 125.99471952 369.83060992 130.92412247 369.8236382 135.853544 C369.8173975 141.0025252 369.81680029 146.15150693 369.81561279 151.30049133 C369.8125016 161.05395419 369.80429105 170.80740587 369.7942633 180.56086379 C369.78100845 193.73850607 369.77560055 206.91615138 369.76976109 220.09379864 C369.76035103 240.86067719 369.74043069 261.62753216 369.72224426 282.39440918 C342.99224426 282.39440918 316.26224426 282.39440918 288.72224426 282.39440918 C286.74224426 275.79440918 284.76224426 269.19440918 282.72224426 262.39440918 C269.48662518 233.36143829 247.99380586 209.20121854 217.62605286 197.59313965 C208.83689991 194.38452146 200.04542033 191.51260942 190.72224426 190.39440918 C189.81216614 190.28483887 188.90208801 190.17526855 187.96443176 190.06237793 C156.35583669 186.76064446 126.54263831 196.04164159 101.53474426 215.26940918 C80.06658224 233.11855207 67.45817603 255.45068213 60.72224426 282.39440918 C33.99224426 282.39440918 7.26224426 282.39440918 -20.27775574 282.39440918 C-20.36592372 247.71794313 -20.43978562 213.04158577 -20.48201706 178.36504137 C-20.48701993 174.27196586 -20.49219722 170.17889058 -20.4974823 166.08581543 C-20.49853154 165.27095146 -20.49958078 164.45608749 -20.50066182 163.61653067 C-20.51807116 150.41913332 -20.54961175 137.2218056 -20.58636692 124.02444957 C-20.62376165 110.48461636 -20.64598848 96.94481964 -20.65410972 83.40493691 C-20.65960055 75.04882302 -20.67694815 66.69290594 -20.7094216 58.33685263 C-20.73055139 52.60823465 -20.73695928 46.87971856 -20.73176125 41.15106444 C-20.72919702 37.84493207 -20.73533197 34.53921682 -20.75457764 31.2331295 C-20.77442518 27.64850066 -20.76971304 24.06471974 -20.7587738 20.48007202 C-20.77042517 19.43532019 -20.78207654 18.39056835 -20.79408097 17.31415737 C-20.7462218 11.52772965 -20.35805044 7.8540696 -16.27775574 3.39440918 C-11.64434451 -0.7976895 -5.89996769 -0.02911276 0 0 Z M21.72224426 53.39440918 C20.39316259 56.28513871 20.39316259 56.28513871 20.72224426 59.39440918 C23.45742542 63.04415696 24.96367142 64.26959142 29.51225376 65.01802826 C31.02170847 65.04284318 32.53176673 65.0402042 34.04122925 65.01586914 C34.87572379 65.02225796 35.71021833 65.02864678 36.57000059 65.03522921 C39.36480814 65.05048358 42.15819908 65.03001549 44.95295715 65.00964355 C46.95703603 65.01314459 48.96111213 65.01880297 50.96517944 65.02645874 C56.40731141 65.04071785 61.8489388 65.0236345 67.29102254 65.00017357 C72.98264849 64.9800843 78.67425308 64.98594308 84.36590576 64.98828125 C93.923328 64.98822766 103.48055264 64.96845982 113.03791809 64.93640137 C124.09371989 64.89949739 135.14926289 64.8907271 146.20511824 64.89769888 C156.83421394 64.90399968 167.46322074 64.89325809 178.09229851 64.87373352 C182.61893923 64.86555047 187.14553458 64.86285163 191.67218208 64.86442566 C197.00002064 64.86530332 202.32761248 64.85112038 207.65538597 64.82519913 C209.61295501 64.81802505 211.57055027 64.81595965 213.52812958 64.81931686 C216.1957701 64.82301979 218.86268589 64.80832573 221.53024292 64.78881836 C222.30893441 64.79414629 223.0876259 64.79947421 223.8899141 64.80496359 C227.07417702 64.76465753 229.35417021 64.59651002 232.17174435 63.04944611 C234.50112378 60.56301645 234.72224426 58.76504276 234.72224426 55.39440918 C232.95184977 52.64724531 231.65932583 50.86294996 228.72224426 49.39440918 C226.08855197 49.29003542 223.4809182 49.24661291 220.84667969 49.24723816 C220.02362109 49.24356147 219.20056249 49.23988478 218.35256273 49.23609668 C215.57889242 49.22503342 212.80525953 49.22121155 210.03157043 49.21740723 C208.04926432 49.21114462 206.06695939 49.204498 204.08465576 49.19749451 C198.68792046 49.18006706 193.29119403 49.16952821 187.89443755 49.16128898 C184.52509579 49.15614302 181.15575681 49.15006714 177.78641701 49.14377785 C167.2513251 49.12472179 156.71624023 49.11049095 146.1811344 49.10216588 C134.00732329 49.09238783 121.83369373 49.06605517 109.65994662 49.02566499 C100.25863048 48.99554008 90.85736649 48.98070049 81.45600301 48.97738487 C75.83703365 48.97503043 70.21825816 48.96601879 64.59934044 48.94092369 C59.31422793 48.9177011 54.02943773 48.91338632 48.74428749 48.92368507 C46.80324356 48.92418195 44.86218408 48.91781713 42.92118835 48.90412903 C40.27332278 48.88649907 37.6266251 48.89347201 34.97875977 48.90666199 C34.20871666 48.89569274 33.43867355 48.8847235 32.6452958 48.87342185 C27.72700486 48.93266558 25.1309626 49.82170098 21.72224426 53.39440918 Z M22.72224426 99.39440918 C20.81522651 101.93709952 20.71636667 103.25040811 20.84724426 106.45690918 C21.90416065 110.00512847 22.50569987 110.64040947 25.72224426 112.39440918 C28.53012628 112.68348807 31.11417721 112.79946094 33.92097473 112.77536011 C35.17143491 112.78238007 35.17143491 112.78238007 36.44715691 112.78954184 C39.24474297 112.80152223 42.04184193 112.79202275 44.83943176 112.78259277 C46.84336127 112.78665712 48.84728854 112.79199823 50.85121155 112.79852295 C56.29740628 112.81221859 61.74343083 112.80688859 67.1896286 112.79738569 C72.88393621 112.78980076 78.57822906 112.79683146 84.27253723 112.80154419 C93.8358777 112.80700514 103.39914871 112.7998012 112.96247864 112.78552246 C124.02563226 112.76919533 135.08862003 112.7744836 146.15176964 112.79100168 C155.64314381 112.80460685 165.134468 112.80654094 174.62584877 112.79868567 C180.29779912 112.79400383 185.96967146 112.79339834 191.64161682 112.80329514 C196.97352122 112.81194841 202.30521138 112.80597283 207.63709259 112.78861237 C209.59628188 112.78463876 211.55548914 112.78579644 213.51467133 112.79240036 C216.18453056 112.80057142 218.85369884 112.79034818 221.52351379 112.77536011 C222.3028874 112.78205227 223.08226101 112.78874444 223.885252 112.7956394 C227.07209508 112.7608243 229.35164238 112.59773581 232.17216492 111.05028725 C234.5005313 108.56300114 234.72224426 106.76511838 234.72224426 103.39440918 C232.95184977 100.64724531 231.65932583 98.86294996 228.72224426 97.39440918 C226.08617173 97.29437182 223.4763874 97.25544467 220.83995056 97.26069641 C220.0161864 97.25843085 219.19242224 97.2561653 218.34369552 97.25383109 C215.56768342 97.24747221 212.7917199 97.24832166 210.01570129 97.24914551 C208.03177324 97.24615518 206.04784577 97.24275295 204.06391907 97.2389679 C198.66311162 97.23011057 193.26232 97.22778905 187.86150599 97.22715211 C183.35836617 97.22620435 178.85523006 97.22252758 174.35209167 97.21898001 C163.73051954 97.21082878 153.10895588 97.20839638 142.48738098 97.20910645 C131.51859936 97.20970735 120.5498669 97.19915458 109.58109772 97.18336278 C100.17470096 97.17030127 90.76832028 97.16492197 81.36191452 97.16556185 C75.73912892 97.16581726 70.11638698 97.16294265 64.49361038 97.1523838 C59.20610597 97.14272622 53.91868718 97.14260753 48.63117981 97.14990044 C46.6881129 97.15094921 44.74504073 97.14856611 42.80198288 97.14253998 C40.15405527 97.13485836 37.50642612 97.13943937 34.85850525 97.14717102 C33.69907132 97.13945568 33.69907132 97.13945568 32.51621449 97.13158447 C28.78133388 97.15576312 25.84750186 97.22170025 22.72224426 99.39440918 Z M21.72224426 148.39440918 C20.38564282 151.7503378 20.38564282 151.7503378 20.72224426 155.39440918 C22.42285406 158.32165475 22.42285406 158.32165475 25.72224426 160.39440918 C29.63990778 161.14268315 33.51099584 161.06427183 37.48921204 161.02259827 C39.2973004 161.03323985 39.2973004 161.03323985 41.1419158 161.04409641 C44.48493669 161.05865715 47.82654183 161.05077882 51.1694591 161.03337348 C54.77553855 161.02000965 58.3815103 161.03543297 61.98757935 161.04719543 C69.05062629 161.06558388 76.11339676 161.05705181 83.17643511 161.03910721 C88.91618657 161.02508703 94.65586294 161.02118715 100.39562988 161.02454948 C101.21224038 161.02502693 102.02885089 161.02550437 102.87020716 161.02599628 C104.52908585 161.0270226 106.18796453 161.02807796 107.84684318 161.02916204 C122.51874447 161.03773154 137.1905122 161.02104606 151.86238098 160.99133301 C166.10234691 160.96249498 180.34212043 160.95541172 194.58210754 160.9708252 C210.08491193 160.98758255 225.58762493 160.99162633 241.09043169 160.97411484 C242.74324066 160.97227043 244.39604965 160.9704357 246.04885864 160.96861076 C247.26870969 160.96724263 247.26870969 160.96724263 248.51320419 160.96584686 C254.2466928 160.96023855 259.98013685 160.96355137 265.71362305 160.97015572 C272.69995519 160.97788363 279.68609785 160.97115599 286.67239177 160.94598068 C290.23760969 160.93347287 293.80253244 160.92735434 297.36776161 160.93852234 C301.23044931 160.95039374 305.09262636 160.93132965 308.95527649 160.90907288 C310.6500589 160.92143403 310.6500589 160.92143403 312.37907934 160.9340449 C318.43128508 160.88169877 318.43128508 160.88169877 323.91861725 158.54583645 C325.94644064 156.4684901 325.94644064 156.4684901 326.34724426 153.45690918 C325.47430583 149.17951084 324.25372517 147.98987607 320.72224426 145.39440918 C316.81802962 144.64437639 312.95837551 144.72886703 308.99324036 144.77294922 C307.19127732 144.76336599 307.19127732 144.76336599 305.352911 144.75358915 C302.0212798 144.74096562 298.6910812 144.75078021 295.35957241 144.77010393 C291.76577282 144.78552521 288.17206564 144.77213058 284.57826233 144.76235962 C277.53926869 144.74782734 270.50056331 144.76007268 263.46159697 144.78147286 C255.26610121 144.80547527 247.07067163 144.80376896 238.87514853 144.80116695 C224.253157 144.79747603 209.63130135 144.81830868 195.00935364 144.85241699 C180.81791245 144.88550883 166.62661388 144.89967537 152.43513489 144.89343262 C136.98507502 144.88666966 121.53507492 144.88912615 106.08502388 144.90879202 C105.26813894 144.9098315 104.451254 144.91087099 103.60961497 144.91194198 C101.96890276 144.91403289 100.32819058 144.91614386 98.68747842 144.91827515 C92.9735371 144.92517282 87.25961417 144.92583971 81.54566956 144.9243927 C74.58315023 144.92295347 67.62074726 144.93263517 60.65826654 144.95633906 C57.10524708 144.96820487 53.55238985 144.9753204 49.9993515 144.9695015 C46.14986852 144.96338334 42.30069124 144.98048182 38.45124817 145 C37.32528418 144.99467207 36.19932018 144.98934415 35.03923607 144.98385477 C33.492751 144.99743973 33.492751 144.99743973 31.9150238 145.01129913 C31.02653055 145.01287034 30.1380373 145.01444154 29.22262001 145.01606035 C26.10503714 145.48780298 24.23484401 146.50697181 21.72224426 148.39440918 Z M22.41365051 195.70935059 C20.40929502 198.37686146 20.40929502 198.37686146 20.65974426 202.01940918 C21.84433961 205.78224144 22.39535253 206.4870663 25.72224426 208.39440918 C28.43569696 208.8466837 28.43569696 208.8466837 31.43708801 208.78259277 C32.58507874 208.79204926 33.73306946 208.80150574 34.91584778 208.81124878 C36.15133362 208.80517609 37.38681946 208.79910339 38.65974426 208.79284668 C40.56808044 208.79715195 40.56808044 208.79715195 42.51496887 208.80154419 C45.20514036 208.80358595 47.8944943 208.79955699 50.58454895 208.78552246 C54.02800323 208.76843033 57.47075601 208.77827482 60.91418457 208.79623985 C64.20439611 208.80970324 67.49452356 208.80026952 70.78474426 208.79284668 C72.63797302 208.80195572 72.63797302 208.80195572 74.52864075 208.81124878 C75.67663147 208.8017923 76.82462219 208.79233582 78.00740051 208.78259277 C79.01681702 208.78020599 80.02623352 208.77781921 81.0662384 208.77536011 C84.15886475 208.3317847 85.51046565 207.57700439 87.72224426 205.39440918 C88.97635995 202.0326678 88.97635995 202.0326678 88.72224426 198.39440918 C87.07252873 195.7755334 86.36742809 194.81960288 83.72224426 193.39440918 C79.39343064 192.63534927 75.10779397 192.69417712 70.72224426 192.73034668 C68.81958801 192.72317123 68.81958801 192.72317123 66.87849426 192.71585083 C64.19793602 192.71244984 61.51966284 192.7191364 58.83943176 192.74255371 C55.41248572 192.77104376 51.98749745 192.75463217 48.56062317 192.72469139 C45.28109433 192.70222874 42.0017987 192.71797857 38.72224426 192.73034668 C36.88146301 192.71516495 36.88146301 192.71516495 35.00349426 192.69967651 C28.1729986 192.57196863 28.1729986 192.57196863 22.41365051 195.70935059 Z M258.72224426 197.39440918 C257.88874476 200.35100791 257.88874476 200.35100791 258.72224426 203.39440918 C260.38185081 205.9236328 261.15273871 206.96152166 263.72224426 208.39440918 C267.97866382 209.14486908 272.19109857 209.07075092 276.50349426 209.02331543 C277.74973572 209.02572739 278.99597717 209.02813934 280.27998352 209.03062439 C283.5861755 209.02939529 286.89117469 209.00436076 290.19715881 208.97088623 C292.22060751 208.95692048 294.24321597 208.96048924 296.26667786 208.9708252 C300.15850655 208.9895976 304.04918622 208.98017257 307.94099426 208.96081543 C309.14630798 208.9657753 310.3516217 208.97073517 311.59346008 208.97584534 C318.06789468 208.92623578 318.06789468 208.92623578 323.98200989 206.57775879 C326.00977734 204.38912218 326.00977734 204.38912218 326.34724426 200.89440918 C326.00949979 197.39959521 326.00949979 197.39959521 323.98200989 195.2088623 C318.83524471 192.34406611 313.73489343 192.82423756 307.94099426 192.86315918 C306.69475281 192.85933228 305.44851135 192.85550537 304.164505 192.8515625 C300.85849479 192.84814709 297.55323969 192.86421422 294.24732971 192.88659668 C292.22391269 192.89440274 290.20118954 192.88662397 288.17781067 192.8729248 C284.28604471 192.84821216 280.39530305 192.85120838 276.50349426 192.86315918 C275.29818054 192.85506226 274.09286682 192.84696533 272.85102844 192.83862305 C264.85840717 192.73719382 264.85840717 192.73719382 258.72224426 197.39440918 Z M23.72224426 245.39440918 C22.99293643 249.20301676 23.33034212 250.79100429 25.44490051 254.04675293 C29.7714877 258.14226016 36.16870202 257.11075034 41.72224426 257.01940918 C42.89786926 257.03874512 44.07349426 257.05808105 45.28474426 257.07800293 C52.19797535 257.24789526 52.19797535 257.24789526 58.03083801 254.08190918 C60.03497803 251.41216924 60.03497803 251.41216924 59.78474426 247.76940918 C58.59732412 243.99760401 58.06785032 243.2937523 54.72224426 241.39440918 C50.2455773 240.76397318 45.73849068 240.93100787 41.22224426 240.95690918 C39.98603333 240.93692871 38.74982239 240.91694824 37.47615051 240.8963623 C36.28892395 240.89700684 35.10169739 240.89765137 33.87849426 240.89831543 C32.79374817 240.8964624 31.70900208 240.89460937 30.59138489 240.8927002 C27.05461895 241.51115271 25.88283426 242.57637338 23.72224426 245.39440918 Z M289.72224426 245.39440918 C288.97224426 248.89440918 288.97224426 248.89440918 289.72224426 252.39440918 C292.36640839 255.11219905 294.02537367 256.28428669 297.79670715 256.88024902 C298.91811096 256.87203125 300.03951477 256.86381348 301.19490051 256.85534668 C302.42402161 256.85147949 303.6531427 256.8476123 304.91950989 256.84362793 C306.19503723 256.81913574 307.47056458 256.79464355 308.78474426 256.76940918 C310.06413879 256.76812012 311.34353333 256.76683105 312.66169739 256.76550293 C320.02797464 256.97187619 320.02797464 256.97187619 326.72224426 254.39440918 C328.62926202 251.85171884 328.72812186 250.53841025 328.59724426 247.33190918 C327.55098833 243.81947854 326.86610477 243.17577907 323.72224426 241.39440918 C320.49973051 240.91669806 320.49973051 240.91669806 316.90974426 240.96081543 C315.93364197 240.95295265 315.93364197 240.95295265 314.93782043 240.94493103 C313.5661715 240.93852636 312.19446753 240.93982776 310.8228302 240.94836426 C308.72840905 240.9568841 306.6367093 240.92808444 304.54255676 240.8963623 C303.20662008 240.89475026 301.87067858 240.8953279 300.53474426 240.89831543 C299.32431458 240.8964624 298.11388489 240.89460937 296.86677551 240.8927002 C293.12502522 241.48969529 291.94523355 242.37253311 289.72224426 245.39440918 Z " fill="#35A033" transform="translate(81.27775573730469,10.6055908203125)"/>
<path d="M0 0 C16.39144043 15.36927462 26.51977864 35.1955027 30.05859375 57.3515625 C30.13542115 60.02168208 30.08657295 62.67946177 30.05859375 65.3515625 C30.81765896 65.34787533 31.57672417 65.34418816 32.35879135 65.34038925 C50.8197384 65.25209151 69.28064336 65.18587888 87.74175644 65.14431381 C96.66938607 65.1236795 105.59687484 65.09554239 114.52441406 65.04980469 C122.30473112 65.00996342 130.08494617 64.98413601 137.86536241 64.97520852 C141.98592901 64.96998914 146.10620378 64.95770395 150.22667694 64.92864227 C154.10414326 64.90151579 157.9811972 64.89311177 161.85874939 64.89913177 C163.28259267 64.89803028 164.70644958 64.89005954 166.13021088 64.8747406 C168.07301382 64.85486036 170.01603746 64.86200324 171.95892334 64.87054443 C173.04663906 64.86685726 174.13435478 64.86317009 175.25503159 64.85937119 C178.73024289 65.46947673 179.90377435 66.61530722 182.05859375 69.3515625 C182.98725884 73.09547217 182.56234028 76.41603324 180.74609375 79.7890625 C177.55360125 82.74507408 174.29154386 82.47536761 170.15510559 82.47181702 C168.92251511 82.47319168 167.68992462 82.47456635 166.41998291 82.47598267 C165.05187964 82.47244353 163.68377662 82.46880873 162.31567383 82.46508789 C160.87682599 82.46480586 159.437978 82.46496407 157.99913025 82.4655304 C154.09032908 82.46581773 150.18155849 82.45993123 146.27276444 82.45295644 C142.1888178 82.44671236 138.10487048 82.44611826 134.0209198 82.44493103 C126.28616568 82.44182083 118.55142566 82.43361162 110.81667775 82.42358154 C102.01145721 82.41241076 93.20623601 82.40690752 84.40101016 82.40188611 C66.28686335 82.39142877 48.17272968 82.37383533 30.05859375 82.3515625 C30.06544189 83.62209473 30.07229004 84.89262695 30.0793457 86.20166016 C30.10431737 90.83463907 29.25227625 94.88798635 28.05859375 99.3515625 C27.72964111 100.58616211 27.72964111 100.58616211 27.39404297 101.84570312 C25.00961582 110.2681936 21.36764897 117.76504632 17.05859375 125.3515625 C16.52621094 126.32351563 15.99382812 127.29546875 15.4453125 128.296875 C2.33952681 150.60597918 -20.23751714 165.74804346 -44.859375 172.609375 C-72.07864293 179.1640783 -99.42441164 175.09568322 -123.72265625 161.3828125 C-148.70129482 145.61959398 -164.27395931 122.57787481 -171.3125 94.0703125 C-171.99442638 90.03805219 -171.98399331 86.43357147 -171.94140625 82.3515625 C-172.6892422 82.35432788 -173.43707815 82.35709326 -174.2075758 82.35994244 C-192.4018449 82.42618782 -210.59608995 82.47583604 -228.79045391 82.50699902 C-237.58910642 82.52246966 -246.38767845 82.54356293 -255.1862793 82.57788086 C-262.85490418 82.60777719 -270.52347078 82.62713607 -278.19215232 82.63382798 C-282.25289202 82.63773985 -286.31346496 82.64693732 -290.37415123 82.66875267 C-294.19658195 82.68912157 -298.01877726 82.69539552 -301.8412571 82.69088554 C-303.24370732 82.69171057 -304.64616545 82.69767398 -306.04856873 82.70917892 C-307.96479082 82.72412743 -309.88113934 82.71872322 -311.79740906 82.71232605 C-312.8694543 82.71509143 -313.94149954 82.71785681 -315.046031 82.72070599 C-318.37259386 82.29658859 -320.25500345 81.32761572 -322.94140625 79.3515625 C-324.50611858 76.22213785 -324.63842583 72.74074027 -323.94140625 69.3515625 C-321.79182631 66.608929 -320.61382936 65.46961261 -317.13784409 64.85937119 C-316.05012836 64.86305836 -314.96241264 64.86674553 -313.84173584 64.87054443 C-312.59094238 64.86504578 -311.34014893 64.85954712 -310.05145264 64.85388184 C-308.66808698 64.86803749 -307.2847252 64.88257672 -305.90136719 64.89746094 C-304.44266796 64.8985894 -302.98396646 64.89795559 -301.52526855 64.89569092 C-297.56675499 64.89454276 -293.60872577 64.91806817 -289.65032482 64.94598675 C-285.51302225 64.97098359 -281.37570871 64.97334104 -277.23834229 64.97808838 C-269.40435638 64.99052323 -261.57059363 65.02335165 -253.73670602 65.06348634 C-244.8178302 65.10818826 -235.89894375 65.1301871 -226.97998381 65.15026808 C-208.63366475 65.1920839 -190.28755344 65.26244578 -171.94140625 65.3515625 C-171.95437744 64.11277344 -171.96734863 62.87398438 -171.98071289 61.59765625 C-172.02484231 57.38315999 -171.36302957 53.44031453 -170.37890625 49.3515625 C-170.20327148 48.62171143 -170.02763672 47.89186035 -169.84667969 47.13989258 C-165.37855137 29.69354112 -156.37195503 15.30827207 -143.94140625 2.3515625 C-143.28269531 1.64128906 -142.62398437 0.93101562 -141.9453125 0.19921875 C-103.306805 -40.30513217 -39.44156526 -35.51312251 0 0 Z M-99.26953125 8.19140625 C-105.95937845 16.83506396 -107.9626876 25.57924527 -108.50390625 36.1640625 C-108.54708984 36.95232422 -108.59027344 37.74058594 -108.63476562 38.55273438 C-108.74018946 40.48550465 -108.84123719 42.41851276 -108.94140625 44.3515625 C-110.03710938 44.6196875 -111.1328125 44.8878125 -112.26171875 45.1640625 C-117.12577997 46.73378077 -118.06471913 48.29035716 -120.94140625 52.3515625 C-122.36527584 55.19930169 -122.09235982 57.63353817 -122.1184082 60.81738281 C-122.1249794 61.48103348 -122.1315506 62.14468414 -122.13832092 62.82844543 C-122.15806057 65.02886059 -122.16971925 67.2292074 -122.1796875 69.4296875 C-122.18376303 70.18161125 -122.18783855 70.933535 -122.19203758 71.70824432 C-122.21290335 75.68977077 -122.2272016 79.67126272 -122.23657227 83.65283203 C-122.24762472 87.75978318 -122.28200906 91.86619072 -122.32174397 95.97294998 C-122.34793015 99.13518255 -122.35626595 102.29728616 -122.35985374 105.45961761 C-122.3647163 106.973047 -122.37632098 108.48647075 -122.39489174 109.99979401 C-122.41932266 112.12301742 -122.4183118 114.24484221 -122.41137695 116.36816406 C-122.41724319 117.57458557 -122.42310944 118.78100708 -122.42915344 120.02398682 C-121.69558534 125.02863555 -119.56743548 128.00794508 -115.7028656 131.2013092 C-112.04183934 132.72626648 -108.65868392 132.77877866 -104.75805664 132.75561523 C-103.94766434 132.76247849 -103.13727203 132.76934174 -102.30232239 132.77641296 C-99.63105609 132.79467166 -96.96037764 132.79084482 -94.2890625 132.78515625 C-92.42727976 132.78971856 -90.5654987 132.79502428 -88.70372009 132.80104065 C-84.8041194 132.80996996 -80.90472351 132.80755073 -77.00512695 132.79760742 C-72.01376901 132.78611901 -67.02311867 132.80632811 -62.03185368 132.83552456 C-58.18761217 132.85389221 -54.34354005 132.85359296 -50.49926567 132.84788704 C-48.65930628 132.84773389 -46.81933537 132.85377311 -44.9794178 132.86617851 C-42.40388035 132.88109726 -39.82964769 132.87040559 -37.25415039 132.85327148 C-36.49811523 132.86293945 -35.74208008 132.87260742 -34.96313477 132.88256836 C-29.80869449 132.81095396 -26.85127796 131.69456576 -22.94140625 128.3515625 C-19.85067255 124.46739814 -19.55946062 121.44113801 -19.53735352 116.54516602 C-19.53049026 115.88107727 -19.52362701 115.21698853 -19.51655579 114.53277588 C-19.49832931 112.34845291 -19.50211907 110.16485108 -19.5078125 107.98046875 C-19.50324855 106.4549893 -19.49794234 104.9295119 -19.4919281 103.40403748 C-19.4830051 100.21059809 -19.48541058 97.01740889 -19.49536133 93.82397461 C-19.50684813 89.74056965 -19.48664077 85.65802984 -19.45744419 81.5747385 C-19.43905812 78.42533422 -19.43937941 75.27613633 -19.44508171 72.12669182 C-19.44523464 70.62166061 -19.43921346 69.11661515 -19.42679024 67.61163521 C-19.41183582 65.50299655 -19.42258705 63.39594407 -19.43969727 61.28735352 C-19.43986343 60.08998062 -19.4400296 58.89260773 -19.44020081 57.65895081 C-20.16235359 52.89356028 -22.39755414 49.79581125 -25.87890625 46.5390625 C-28.2267338 45.187283 -30.29121582 44.82746161 -32.94140625 44.3515625 C-32.99748047 42.68480469 -32.99748047 42.68480469 -33.0546875 40.984375 C-33.6803352 25.66548597 -36.39585918 13.92274344 -47.8828125 2.921875 C-64.21218411 -9.534306 -85.51783569 -6.15956045 -99.26953125 8.19140625 Z " fill="#61E64F" transform="translate(326.94140625,242.6484375)"/>
<path d="M0 0 C0.8510582 -0.0127597 1.70211639 -0.02551941 2.57896423 -0.03866577 C3.9602224 -0.04200424 3.9602224 -0.04200424 5.36938477 -0.04541016 C6.78611229 -0.05539536 6.78611229 -0.05539536 8.23146057 -0.06558228 C10.23127287 -0.07571846 12.23111907 -0.080399 14.23095703 -0.08007812 C17.29524305 -0.08445047 20.35808825 -0.12075743 23.42211914 -0.15869141 C25.36286941 -0.16455945 27.30362654 -0.16852893 29.24438477 -0.17041016 C30.16319931 -0.18478119 31.08201385 -0.19915222 32.02867126 -0.21395874 C38.2273077 -0.16930719 38.2273077 -0.16930719 40.95239258 1.77050781 C42.31969408 5.51210009 42.28071026 9.14245801 42.23657227 13.07177734 C42.23732002 14.34752625 42.23732002 14.34752625 42.23808289 15.64904785 C42.23574588 17.44444113 42.22603938 19.23983789 42.20947266 21.03515625 C42.18587518 23.78073474 42.18891512 26.52534191 42.19555664 29.27099609 C42.18997968 31.01709562 42.18286969 32.76319107 42.17407227 34.50927734 C42.17543938 35.73910339 42.17543938 35.73910339 42.17683411 36.99377441 C42.12703121 41.00431477 41.83031552 43.80227116 39.87329102 47.29052734 C33.64367124 47.34112615 27.41410421 47.37621796 21.18432617 47.40039062 C19.06386332 47.41046485 16.94341441 47.42412468 14.82299805 47.44140625 C11.77983158 47.46559224 8.73684835 47.47699604 5.69360352 47.48583984 C4.26541794 47.5013237 4.26541794 47.5013237 2.80838013 47.51712036 C1.9276181 47.51727142 1.04685608 47.51742249 0.1394043 47.51757812 C-0.63780975 47.52201935 -1.4150238 47.52646057 -2.21578979 47.53103638 C-4.12670898 47.29052734 -4.12670898 47.29052734 -6.12670898 45.29052734 C-6.38067627 43.43103027 -6.38067627 43.43103027 -6.38549805 41.14794922 C-6.39180237 40.29366333 -6.39810669 39.43937744 -6.40460205 38.5592041 C-6.40055359 37.63522827 -6.39650513 36.71125244 -6.39233398 35.75927734 C-6.39424744 34.81242065 -6.39616089 33.86556396 -6.39813232 32.89001465 C-6.39949471 30.88598363 -6.39579455 28.8819438 -6.38745117 26.87792969 C-6.37675246 23.80302181 -6.3873447 20.72869821 -6.40014648 17.65380859 C-6.3988249 15.70979688 -6.39626253 13.76578554 -6.39233398 11.82177734 C-6.39840668 10.4358136 -6.39840668 10.4358136 -6.40460205 9.02185059 C-6.39829773 8.1675647 -6.39199341 7.31327881 -6.38549805 6.43310547 C-6.38390686 5.67968872 -6.38231567 4.92627197 -6.38067627 4.15002441 C-5.84039699 0.19420887 -3.41578716 0.03470224 0 0 Z " fill="#35A034" transform="translate(198.126708984375,453.70947265625)"/>
<path d="M0 0 C1.27930641 0.00280975 1.27930641 0.00280975 2.5844574 0.00567627 C4.38406291 0.0123881 6.18365405 0.02628538 7.9831543 0.046875 C10.73955833 0.07805108 13.49539017 0.08784993 16.25195312 0.09375 C18.00130906 0.10291968 19.75065919 0.11329533 21.5 0.125 C22.32504532 0.12924988 23.15009064 0.13349976 24.00013733 0.13787842 C27.30503877 0.17923982 30.02741543 0.27606556 33.18359375 1.328125 C34.32960869 3.62015488 34.31596614 4.9226919 34.32885742 7.47070312 C34.33523727 8.32498901 34.34161713 9.1792749 34.34819031 10.05944824 C34.34930313 10.98342407 34.35041595 11.9073999 34.3515625 12.859375 C34.3565551 14.27966003 34.3565551 14.27966003 34.36164856 15.7286377 C34.36671621 17.73266106 34.36905694 19.73669289 34.36889648 21.74072266 C34.37108481 24.81557003 34.38924729 27.89005981 34.40820312 30.96484375 C34.41113664 32.90885293 34.41312172 34.85286383 34.4140625 36.796875 C34.42124802 37.72085083 34.42843353 38.64482666 34.43583679 39.59680176 C34.43276016 40.45108765 34.42968353 41.30537354 34.42651367 42.18554688 C34.42793869 42.93896362 34.42936371 43.69238037 34.43083191 44.46862793 C34.18359375 46.328125 34.18359375 46.328125 32.18359375 48.328125 C30.32409668 48.58209229 30.32409668 48.58209229 28.04101562 48.58691406 C27.18672974 48.59321838 26.33244385 48.59952271 25.45227051 48.60601807 C24.52829468 48.6019696 23.60431885 48.59792114 22.65234375 48.59375 C21.70548706 48.59566345 20.75863037 48.5975769 19.78308105 48.59954834 C17.77905003 48.60091073 15.77501021 48.59721056 13.77099609 48.58886719 C10.69608822 48.57816847 7.62176461 48.58876072 4.546875 48.6015625 C2.60286329 48.60024091 0.65885194 48.59767854 -1.28515625 48.59375 C-2.67112 48.59982269 -2.67112 48.59982269 -4.08508301 48.60601807 C-4.9393689 48.59971375 -5.79365479 48.59340942 -6.67382812 48.58691406 C-7.42724487 48.58532288 -8.18066162 48.58373169 -8.95690918 48.58209229 C-10.81640625 48.328125 -10.81640625 48.328125 -12.81640625 46.328125 C-13.08383179 44.47535706 -13.08383179 44.47535706 -13.10693359 42.20141602 C-13.1196933 41.35035782 -13.132453 40.49929962 -13.14559937 39.62245178 C-13.14782501 38.70161301 -13.15005066 37.78077423 -13.15234375 36.83203125 C-13.15900055 35.88754623 -13.16565735 34.94306122 -13.17251587 33.96995544 C-13.18265206 31.97014314 -13.18733259 29.97029695 -13.18701172 27.97045898 C-13.19138407 24.90617296 -13.22769102 21.84332776 -13.265625 18.77929688 C-13.27149304 16.83854661 -13.27546252 14.89778948 -13.27734375 12.95703125 C-13.29171478 12.03821671 -13.30608582 11.11940216 -13.32089233 10.17274475 C-13.27625275 3.97576937 -13.27625275 3.97576937 -11.33862305 1.24682617 C-7.54814108 -0.13383239 -4.00389162 -0.0600656 0 0 Z " fill="#35A034" transform="translate(73.81640625,347.671875)"/>
<path d="M0 0 C0.8510582 -0.0127597 1.70211639 -0.02551941 2.57896423 -0.03866577 C3.9602224 -0.04200424 3.9602224 -0.04200424 5.36938477 -0.04541016 C6.78611229 -0.05539536 6.78611229 -0.05539536 8.23146057 -0.06558228 C10.23127287 -0.07571846 12.23111907 -0.080399 14.23095703 -0.08007812 C17.29524305 -0.08445047 20.35808825 -0.12075743 23.42211914 -0.15869141 C25.36286941 -0.16455945 27.30362654 -0.16852893 29.24438477 -0.17041016 C30.16319931 -0.18478119 31.08201385 -0.19915222 32.02867126 -0.21395874 C38.22799736 -0.16930222 38.22799736 -0.16930222 40.95019531 1.77050781 C42.31990348 5.50976401 42.30083055 9.14266455 42.27172852 13.07177734 C42.27459869 13.92227661 42.27746887 14.77277588 42.28042603 15.64904785 C42.28246445 17.4444241 42.27695008 19.23982268 42.2644043 21.03515625 C42.24834707 23.78094207 42.26426005 26.52525598 42.28344727 29.27099609 C42.28146479 31.01709309 42.27762104 32.76318917 42.27172852 34.50927734 C42.28083755 35.73910339 42.28083755 35.73910339 42.29013062 36.99377441 C42.25155732 40.12482473 42.03121597 42.85939765 40.95019531 45.81054688 C37.39759409 48.34209368 33.48646838 47.8178146 29.24438477 47.75146484 C27.82622215 47.75009018 27.82622215 47.75009018 26.37940979 47.74868774 C24.38130674 47.74264629 22.38321298 47.726884 20.38525391 47.70214844 C17.31907979 47.66562607 14.25411309 47.6611291 11.18774414 47.66162109 C9.24828052 47.65179079 7.30882512 47.64013416 5.36938477 47.62646484 C4.44854599 47.6242392 3.52770721 47.62201355 2.57896423 47.61972046 C1.72790604 47.60696075 0.87684784 47.59420105 0 47.58105469 C-1.12560081 47.56961929 -1.12560081 47.56961929 -2.27394104 47.55795288 C-4.12670898 47.29052734 -4.12670898 47.29052734 -6.12670898 45.29052734 C-6.38067627 43.43103027 -6.38067627 43.43103027 -6.38549805 41.14794922 C-6.39180237 40.29366333 -6.39810669 39.43937744 -6.40460205 38.5592041 C-6.40055359 37.63522827 -6.39650513 36.71125244 -6.39233398 35.75927734 C-6.39424744 34.81242065 -6.39616089 33.86556396 -6.39813232 32.89001465 C-6.39949471 30.88598363 -6.39579455 28.8819438 -6.38745117 26.87792969 C-6.37675246 23.80302181 -6.3873447 20.72869821 -6.40014648 17.65380859 C-6.3988249 15.70979688 -6.39626253 13.76578554 -6.39233398 11.82177734 C-6.39840668 10.4358136 -6.39840668 10.4358136 -6.40460205 9.02185059 C-6.39829773 8.1675647 -6.39199341 7.31327881 -6.38549805 6.43310547 C-6.38390686 5.67968872 -6.38231567 4.92627197 -6.38067627 4.15002441 C-5.84039699 0.19420887 -3.41578716 0.03470224 0 0 Z " fill="#359F33" transform="translate(360.126708984375,398.70947265625)"/>
<path d="M0 0 C0.85428589 -0.00630432 1.70857178 -0.01260864 2.58874512 -0.019104 C3.51272095 -0.01505554 4.43669678 -0.01100708 5.38867188 -0.00683594 C6.80895691 -0.00970612 6.80895691 -0.00970612 8.25793457 -0.01263428 C10.26196559 -0.01399667 12.26600542 -0.0102965 14.27001953 -0.00195312 C17.34492741 0.00874559 20.41925101 -0.00184666 23.49414062 -0.01464844 C25.43815234 -0.01332685 27.38216368 -0.01076448 29.32617188 -0.00683594 C30.71213562 -0.01290863 30.71213562 -0.01290863 32.12609863 -0.019104 C33.40752747 -0.00964752 33.40752747 -0.00964752 34.71484375 0 C35.4682605 0.00159119 36.22167725 0.00318237 36.9979248 0.00482178 C38.85742188 0.25878906 38.85742188 0.25878906 40.85742188 2.25878906 C41.11138916 4.11828613 41.11138916 4.11828613 41.11621094 6.40136719 C41.12251526 7.25565308 41.12881958 8.10993896 41.13531494 8.9901123 C41.13126648 9.91408813 41.12721802 10.83806396 41.12304688 11.79003906 C41.12591705 13.2103241 41.12591705 13.2103241 41.12884521 14.65930176 C41.1302076 16.66333278 41.12650744 18.6673726 41.11816406 20.67138672 C41.10746535 23.7462946 41.11805759 26.8206182 41.13085938 29.89550781 C41.12953779 31.83951952 41.12697542 33.78353087 41.12304688 35.72753906 C41.12709534 36.65151489 41.1311438 37.57549072 41.13531494 38.52746582 C41.12901062 39.38175171 41.1227063 40.2360376 41.11621094 41.11621094 C41.11461975 41.86962769 41.11302856 42.62304443 41.11138916 43.39929199 C40.85742188 45.25878906 40.85742188 45.25878906 38.85742188 47.25878906 C36.9979248 47.51275635 36.9979248 47.51275635 34.71484375 47.51757812 C33.86055786 47.52388245 33.00627197 47.53018677 32.12609863 47.53668213 C31.2021228 47.53263367 30.27814697 47.52858521 29.32617188 47.52441406 C28.37931519 47.52632751 27.4324585 47.52824097 26.45690918 47.5302124 C24.45287816 47.53157479 22.44883833 47.52787462 20.44482422 47.51953125 C17.36991634 47.50883254 14.29559274 47.51942478 11.22070312 47.53222656 C9.27669141 47.53090498 7.33268007 47.5283426 5.38867188 47.52441406 C4.00270813 47.53048676 4.00270813 47.53048676 2.58874512 47.53668213 C1.73445923 47.53037781 0.88017334 47.52407349 0 47.51757812 C-0.75341675 47.51598694 -1.5068335 47.51439575 -2.28308105 47.51275635 C-4.14257812 47.25878906 -4.14257812 47.25878906 -6.14257812 45.25878906 C-6.39654541 43.39929199 -6.39654541 43.39929199 -6.40136719 41.11621094 C-6.40767151 40.26192505 -6.41397583 39.40763916 -6.42047119 38.52746582 C-6.41642273 37.60348999 -6.41237427 36.67951416 -6.40820312 35.72753906 C-6.41011658 34.78068237 -6.41203003 33.83382568 -6.41400146 32.85827637 C-6.41536385 30.85424535 -6.41166369 28.85020552 -6.40332031 26.84619141 C-6.3926216 23.77128353 -6.40321384 20.69695993 -6.41601562 17.62207031 C-6.41469404 15.6780586 -6.41213167 13.73404725 -6.40820312 11.79003906 C-6.41427582 10.40407532 -6.41427582 10.40407532 -6.42047119 8.9901123 C-6.41416687 8.13582642 -6.40786255 7.28154053 -6.40136719 6.40136719 C-6.399776 5.64795044 -6.39818481 4.89453369 -6.39654541 4.11828613 C-5.85402349 0.14605038 -3.42431918 0.00723203 0 0 Z " fill="#36A034" transform="translate(67.142578125,453.7412109375)"/>
<path d="M0 0 C0.78769775 -0.00428513 1.57539551 -0.00857025 2.38696289 -0.01298523 C4.05125976 -0.01872454 5.71558171 -0.01923172 7.37988281 -0.01489258 C9.92816834 -0.01173033 12.47529533 -0.03520324 15.0234375 -0.06054688 C16.64062353 -0.06281967 18.25781269 -0.06352346 19.875 -0.0625 C20.63756104 -0.07170975 21.40012207 -0.08091949 22.18579102 -0.09040833 C25.01567864 -0.06561113 27.36200887 0.00784146 29.91210938 1.3059082 C31.59401668 4.57801881 31.40532633 7.9846887 31.40625 11.58203125 C31.41767029 12.79687195 31.41767029 12.79687195 31.42932129 14.03625488 C31.44012081 15.74760862 31.44297597 17.45902826 31.43847656 19.17041016 C31.43750333 21.79180374 31.47913939 24.41027861 31.5234375 27.03125 C31.52864387 28.6940043 31.5313327 30.3567688 31.53125 32.01953125 C31.5558429 33.19618347 31.5558429 33.19618347 31.58093262 34.39660645 C31.55273438 36.61132812 31.55273438 36.61132812 30.9375 40.30078125 C27.3017064 43.81057987 23.18973537 43.74203219 18.37109375 43.69921875 C17.6551857 43.70208893 16.93927765 43.70495911 16.20167542 43.70791626 C14.69474492 43.70994986 13.1877876 43.70446932 11.6809082 43.69189453 C9.37846821 43.67580549 7.07777701 43.69177756 4.77539062 43.7109375 C3.30728781 43.7089554 1.83918608 43.70511242 0.37109375 43.69921875 C-0.31441055 43.70529144 -0.99991486 43.71136414 -1.70619202 43.71762085 C-4.54610937 43.67593537 -6.85913 43.38363494 -9.49609375 42.30932617 C-11.99120491 39.10993722 -11.61253074 35.65196548 -11.55859375 31.765625 C-11.56004898 30.93116348 -11.56150421 30.09670197 -11.56300354 29.23695374 C-11.5613444 27.47425848 -11.54978134 25.71154876 -11.52905273 23.94897461 C-11.50006834 21.24465751 -11.50844813 18.54229653 -11.52148438 15.83789062 C-11.51524793 14.12629252 -11.50685773 12.41470062 -11.49609375 10.703125 C-11.49902939 9.89165512 -11.50196503 9.08018524 -11.50498962 8.24412537 C-11.46655273 5.96850586 -11.46655273 5.96850586 -11.0625 2.30078125 C-7.31330161 -0.19868434 -4.34288795 -0.00519059 0 0 Z " fill="#36A033" transform="translate(278.0625,433.69921875)"/>
<path d="M0 0 C1.04481285 -0.00786278 1.04481285 -0.00786278 2.11073303 -0.0158844 C3.58251616 -0.0223015 5.05435059 -0.02097154 6.52612305 -0.01245117 C8.77420781 -0.00394766 11.01974491 -0.03268946 13.26757812 -0.06445312 C14.69921799 -0.0660655 16.13086234 -0.06548691 17.5625 -0.0625 C18.8630835 -0.06435303 20.16366699 -0.06620605 21.50366211 -0.06811523 C24.84765625 0.43359375 24.84765625 0.43359375 27.27197266 2.02514648 C29.41126848 5.29508037 29.34951012 7.57200369 29.34375 11.46484375 C29.34520523 12.13777466 29.34666046 12.81070557 29.34815979 13.50402832 C29.34650425 14.92281435 29.33498128 16.34161898 29.31420898 17.76025391 C29.28524592 19.92688592 29.29360574 22.09106999 29.30664062 24.2578125 C29.30040267 25.63933476 29.29201127 27.02084932 29.28125 28.40234375 C29.27150146 29.65466797 29.26175293 30.90699219 29.25170898 32.19726562 C28.81223502 35.71730601 28.59098647 37.17810507 25.84765625 39.43359375 C23.23659675 39.82790057 21.05068704 39.97174652 18.44140625 39.9296875 C17.35974182 39.93187035 17.35974182 39.93187035 16.25622559 39.93409729 C14.73311316 39.93243887 13.20998388 39.9208836 11.68701172 39.90014648 C9.35572124 39.87119391 7.02670533 39.87953571 4.6953125 39.89257812 C3.2148327 39.88634037 1.73436008 39.87794914 0.25390625 39.8671875 C-0.7915033 39.87159096 -0.7915033 39.87159096 -1.85803223 39.87608337 C-4.56466676 39.82332871 -6.69370763 39.68544495 -9.09033203 38.36938477 C-10.73599234 35.36974325 -10.57983421 32.36164023 -10.55078125 29.02734375 C-10.55365143 28.30623413 -10.55652161 27.58512451 -10.55947876 26.84216309 C-10.56151827 25.3190838 -10.55599622 23.79597825 -10.54345703 22.27294922 C-10.52740018 19.94178697 -10.54330785 17.61235833 -10.5625 15.28125 C-10.56051755 13.80077742 -10.55667382 12.32030593 -10.55078125 10.83984375 C-10.55685394 10.14290405 -10.56292664 9.44596436 -10.56918335 8.72790527 C-10.52971206 6.01157419 -10.41005651 3.89642603 -9.07446289 1.49780273 C-6.07523301 -0.16276414 -3.40460793 0.02554142 0 0 Z " fill="#359F33" transform="translate(141.15234375,412.56640625)"/>
<path d="M0 0 C0.72711182 0.00404846 1.45422363 0.00809692 2.20336914 0.01226807 C2.95046143 0.01035461 3.69755371 0.00844116 4.46728516 0.00646973 C6.04761085 0.00510809 7.62794772 0.00880307 9.20825195 0.01715088 C11.63135836 0.02785107 14.05372337 0.01725527 16.47680664 0.00445557 C18.01066245 0.00577717 19.54451779 0.00833957 21.07836914 0.01226807 C21.80548096 0.0082196 22.53259277 0.00417114 23.28173828 0 C28.41094553 0.04796946 28.41094553 0.04796946 30.64086914 2.27789307 C30.86493539 4.82339865 30.96897327 7.25714099 30.97680664 9.80523682 C30.98346344 10.54995743 30.99012024 11.29467804 30.99697876 12.06196594 C31.00710955 13.63806689 31.01179565 15.21421077 31.01147461 16.79034424 C31.01584655 19.20292797 31.05215386 21.61368031 31.09008789 24.02593994 C31.09595626 25.55653263 31.09992552 27.08713403 31.10180664 28.61773682 C31.11617767 29.33968735 31.13054871 30.06163788 31.14535522 30.8054657 C31.11724379 33.88477215 31.027514 35.80138197 29.05371094 38.23394775 C25.78554461 39.64795961 23.13384322 39.64960401 19.57446289 39.64117432 C18.89916031 39.64167282 18.22385773 39.64217133 17.52809143 39.64268494 C16.10512336 39.64035104 14.68215064 39.63066282 13.25927734 39.61407471 C11.08206294 39.59043318 8.90607037 39.5935243 6.72875977 39.60015869 C-3.94016941 39.5572007 -3.94016941 39.5572007 -7.35913086 37.27789307 C-7.6510169 34.60593951 -7.75527345 32.16910159 -7.72241211 29.49664307 C-7.72291061 28.72735474 -7.72340912 27.95806641 -7.72392273 27.16546631 C-7.72158091 25.53803933 -7.71184599 23.91060883 -7.6953125 22.28326416 C-7.67172314 19.78765589 -7.67474984 17.29311568 -7.68139648 14.79742432 C-7.67581973 13.21799084 -7.66870986 11.63856188 -7.65991211 10.05914307 C-7.66082352 9.31015747 -7.66173492 8.56117188 -7.66267395 7.78948975 C-7.57450586 1.36910147 -6.45627209 0.06038046 0 0 Z " fill="#35A033" transform="translate(420.359130859375,342.72210693359375)"/>
<path d="M0 0 C0.72711182 0.00404846 1.45422363 0.00809692 2.20336914 0.01226807 C2.95046143 0.01035461 3.69755371 0.00844116 4.46728516 0.00646973 C6.04761085 0.00510809 7.62794772 0.00880307 9.20825195 0.01715088 C11.63135836 0.02785107 14.05372337 0.01725527 16.47680664 0.00445557 C18.01066245 0.00577717 19.54451779 0.00833957 21.07836914 0.01226807 C21.80548096 0.0082196 22.53259277 0.00417114 23.28173828 0 C28.41094553 0.04796946 28.41094553 0.04796946 30.64086914 2.27789307 C30.84043884 4.83539759 30.9207374 7.28227447 30.90649414 9.84039307 C30.90936432 10.96103149 30.90936432 10.96103149 30.91229248 12.10430908 C30.91365412 13.68463477 30.90995914 15.26497165 30.90161133 16.84527588 C30.89091114 19.26838229 30.90150693 21.6907473 30.91430664 24.11383057 C30.91298504 25.64768637 30.91042264 27.18154172 30.90649414 28.71539307 C30.9105426 29.44250488 30.91459106 30.1696167 30.91876221 30.91876221 C30.87079275 36.04796946 30.87079275 36.04796946 28.64086914 38.27789307 C26.08336461 38.47746277 23.63648773 38.55776133 21.07836914 38.54351807 C19.95773071 38.54638824 19.95773071 38.54638824 18.81445312 38.54931641 C17.23412744 38.55067804 15.65379056 38.54698306 14.07348633 38.53863525 C11.65037992 38.52793507 9.22801491 38.53853086 6.80493164 38.55133057 C5.27107583 38.55000897 3.73722049 38.54744657 2.20336914 38.54351807 C1.47625732 38.54756653 0.74914551 38.55161499 0 38.55578613 C-5.12920725 38.50781667 -5.12920725 38.50781667 -7.35913086 36.27789307 C-7.55870056 33.72038854 -7.63899912 31.27351166 -7.62475586 28.71539307 C-7.62666931 27.96830078 -7.62858276 27.2212085 -7.6305542 26.45147705 C-7.63191584 24.87115136 -7.62822085 23.29081448 -7.61987305 21.71051025 C-7.60917286 19.28740385 -7.61976865 16.86503883 -7.63256836 14.44195557 C-7.63124676 12.90809976 -7.62868436 11.37424441 -7.62475586 9.84039307 C-7.62880432 9.11328125 -7.63285278 8.38616943 -7.63702393 7.63702393 C-7.57758434 1.28135628 -6.35566764 0.05943958 0 0 Z " fill="#359F34" transform="translate(420.359130859375,462.72210693359375)"/>
<path d="M0 0 C6.36508567 5.24820057 12.15322975 11.02471452 17.96484375 16.8671875 C19.00837079 17.91258325 20.05212152 18.95775575 21.09608459 20.00271606 C23.82230745 22.7327284 26.54551181 25.46573193 29.26806641 28.19940186 C32.05512459 30.99675154 34.84507146 33.79121701 37.63476562 36.5859375 C43.09265081 42.05449694 48.54734559 47.52622445 54 53 C51.44978524 54.27510738 50.69860817 53.71637487 48 53 C46.44350108 52.88943539 44.88337464 52.82468028 43.32324219 52.79467773 C42.40258972 52.77473251 41.48193726 52.75478729 40.53338623 52.73423767 C39.54783752 52.71752518 38.56228882 52.70081268 37.546875 52.68359375 C36.02383759 52.6524221 36.02383759 52.6524221 34.47003174 52.62062073 C31.23008927 52.55529403 27.99006652 52.49631863 24.75 52.4375 C22.55207507 52.39429874 20.35415822 52.35068393 18.15625 52.30664062 C12.77091794 52.19962993 7.3855062 52.09783227 2 52 C1.98969254 51.45178085 1.97938507 50.90356171 1.96876526 50.33872986 C1.86024271 44.61185883 1.74568462 38.8851307 1.62768555 33.15844727 C1.58448277 31.02371218 1.54279789 28.88894579 1.50268555 26.75415039 C1.44462646 23.67845241 1.38103616 20.60290984 1.31640625 17.52734375 C1.29969376 16.57915268 1.28298126 15.63096161 1.26576233 14.65403748 C1.15561517 9.68156501 0.82891423 4.90563828 0 0 Z " fill="#61E64F" transform="translate(385,23)"/>
<path d="M0 0 C5.19856804 2.86535246 8.18281802 6.7670951 10.75 12.0625 C12.36892404 18.53819614 11.75 25.3875052 11.75 32.0625 C-2.77 32.0625 -17.29 32.0625 -32.25 32.0625 C-32.25 13.2225 -32.25 13.2225 -27.6875 5.375 C-19.67651066 -2.22516937 -10.16193593 -4.36598146 0 0 Z " fill="#62E64F" transform="translate(266.25,254.9375)"/>
<path d="M0 0 C3.37605962 2.78028439 4.89116712 4.88218855 5.4453125 9.30859375 C5.69611505 15.46997641 5.19067589 19.06831261 1.125 23.75 C0.795 24.08 0.465 24.41 0.125 24.75 C-0.11288858 28.0577841 -0.27040297 31.35824645 -0.39257812 34.671875 C-0.59110156 38.74722404 -0.96632852 42.11475645 -2.875 45.75 C-5.125 47.6875 -5.125 47.6875 -7.875 48.75 C-11.40664296 47.98827309 -13.31371412 47.31128588 -15.875 44.75 C-17.51198028 40.34599499 -17.15283854 35.33354344 -17.21679688 30.68164062 C-17.41611742 25.73570979 -18.48518928 23.31028476 -21.875 19.75 C-23.84159382 15.81681237 -23.19887197 11.04753187 -22.875 6.75 C-21.56572056 2.90399164 -19.64810176 1.38543072 -16.25 -0.625 C-10.60833624 -3.19128167 -5.56447109 -2.41933526 0 0 Z " fill="#349E32" transform="translate(264.875,308.25)"/>
<path d="M0 0 C1.21429688 0.00322266 2.42859375 0.00644531 3.6796875 0.00976562 C5.50113281 -0.0144043 5.50113281 -0.0144043 7.359375 -0.0390625 C8.51695312 -0.03970703 9.67453125 -0.04035156 10.8671875 -0.04101562 C12.46626953 -0.04548706 12.46626953 -0.04548706 14.09765625 -0.05004883 C14.94972656 0.07281494 15.80179687 0.19567871 16.6796875 0.32226562 C18.88513184 3.63043213 18.93595885 4.68998395 18.9453125 8.54101562 C18.94917969 10.06275391 18.94917969 10.06275391 18.953125 11.61523438 C18.94539063 12.67355469 18.93765625 13.731875 18.9296875 14.82226562 C18.93742187 15.88058594 18.94515625 16.93890625 18.953125 18.02929688 C18.95054687 19.04378906 18.94796875 20.05828125 18.9453125 21.10351562 C18.94305664 22.03228516 18.94080078 22.96105469 18.93847656 23.91796875 C18.6796875 26.32226562 18.6796875 26.32226562 16.6796875 29.32226562 C14.09765625 29.69458008 14.09765625 29.69458008 10.8671875 29.68554688 C9.13082031 29.68458008 9.13082031 29.68458008 7.359375 29.68359375 C6.14507812 29.66748047 4.93078125 29.65136719 3.6796875 29.63476562 C2.46539062 29.63798828 1.25109375 29.64121094 0 29.64453125 C-9.05349702 29.5890811 -9.05349702 29.5890811 -11.3203125 27.32226562 C-11.57910156 24.83203125 -11.57910156 24.83203125 -11.5859375 21.72851562 C-11.58851563 20.61605469 -11.59109375 19.50359375 -11.59375 18.35742188 C-11.58214844 16.60751953 -11.58214844 16.60751953 -11.5703125 14.82226562 C-11.57804687 13.65566406 -11.58578125 12.4890625 -11.59375 11.28710938 C-11.59117187 10.17464844 -11.58859375 9.0621875 -11.5859375 7.91601562 C-11.58368164 6.89185547 -11.58142578 5.86769531 -11.57910156 4.8125 C-10.92102966 -1.51988996 -4.95315499 0.0303367 0 0 Z " fill="#36A034" transform="translate(348.3203125,471.677734375)"/>
</svg>
